<svg xmlns="http://www.w3.org/2000/svg" viewBox="0 0 24 24"><path fill="currentColor" d="m13.35 16.4.5-.84c.8.49 1.7.75 2.63.74.88 0 1.75-.23 2.51-.68a5.11 5.11 0 0 0 1.8-1.8c.46-.76.7-1.63.68-2.51a4.83 4.83 0 0 0-.67-2.52 5.12 5.12 0 0 0-1.8-1.8 4.8 4.8 0 0 0-2.52-.68 4.92 4.92 0 0 0-4.61 3.05c-.26.62-.4 1.28-.39 1.95h-1.07c0-.82.16-1.6.47-2.32a6.03 6.03 0 0 1 3.25-3.19 6.08 6.08 0 0 1 7.95 3.17c.31.73.47 1.5.47 2.34a5.79 5.79 0 0 1-1.77 4.23 6.01 6.01 0 0 1-5.93 1.5 6.11 6.11 0 0 1-1.5-.65zm-5.59 5.85a6.5 6.5 0 0 1-2.48-.46 6.15 6.15 0 0 1-3.35-3.29 6.2 6.2 0 0 1-.48-2.45 6.2 6.2 0 0 1 1.82-4.42 6.21 6.21 0 0 1 4.5-1.79 6.42 6.42 0 0 1 4.47 1.8 6.05 6.05 0 0 1 1.82 4.4 6.2 6.2 0 0 1-1.82 4.42 6.23 6.23 0 0 1-4.48 1.8zM5.31 10.88l-.82.66a5.44 5.44 0 0 1 .24-7.6 5.72 5.72 0 0 1 3.94-1.6c.87 0 1.7.18 2.46.55.76.38 1.41.9 1.95 1.54.53.65.9 1.41 1.07 2.23l-1.06.21a4.35 4.35 0 0 0-.87-1.84A4.64 4.64 0 0 0 8.67 3.3a4.6 4.6 0 0 0-4.53 4.53 4.34 4.34 0 0 0 1.17 3.04zm2.45 10.4c.97 0 1.84-.24 2.63-.71a5.4 5.4 0 0 0 1.89-1.9c.47-.79.72-1.7.7-2.63 0-.95-.23-1.83-.7-2.62a5.35 5.35 0 0 0-1.89-1.9c-.8-.47-1.7-.71-2.63-.7a5.04 5.04 0 0 0-2.63.7c-.8.48-1.42 1.11-1.9 1.9-.47.8-.71 1.7-.7 2.63-.01.93.23 1.84.7 2.63a5.35 5.35 0 0 0 1.9 1.9c.8.46 1.67.7 2.63.7zm10.37-9.5a1.4 1.4 0 0 1-.94-.4c-.3-.25-.48-.54-.55-.85a2 2 0 0 1-1.27-.42c-.36-.28-.54-.6-.54-.95a.7.7 0 0 1 .87-.68 4.16 4.16 0 0 1-.13-.9.67.67 0 0 1 .67-.81c.25 0 .49.08.7.22a2 2 0 0 1 .58.6c.17-.12.35-.24.54-.33a.96.96 0 0 1 .39-.1c.26 0 .48.14.64.4.18.35.27.74.27 1.13.29.05.55.18.78.4.2.14.32.35.35.6a.67.67 0 0 1-.48.56c-.32.15-.69.23-1.1.23.02.34-.04.69-.2 1a.64.64 0 0 1-.58.3zm-12.7 4.35c.14.11.33.17.52.17.24 0 .51-.08.8-.22.29-.14.53-.36.7-.62.43.01.84-.15 1.13-.45.29-.3.43-.58.43-.87a.62.62 0 0 0-.19-.46.85.85 0 0 0-.62-.19 1.84 1.84 0 0 0 .02-.39c0-.44-.07-.8-.22-1.1a.64.64 0 0 0-.54-.43.7.7 0 0 0-.53.33c-.17.22-.3.47-.38.76-.1-.16-.23-.3-.4-.43a.87.87 0 0 0-.49-.17.54.54 0 0 0-.41.19.7.7 0 0 0-.17.48c0 .26.07.54.23.84-.3.02-.6.13-.85.3a.66.66 0 0 0-.3.51c.02.2.12.38.28.5.25.17.53.27.83.3a3.95 3.95 0 0 0-.07.42c0 .25.08.42.22.53zm1.3-13.07v.39L4.47 5.1a.95.95 0 0 0-.37-.12 2.54 2.54 0 0 0-1.4.1.9.9 0 0 1 .22-.64c.14-.16.3-.27.5-.35l.48-.2c.11-.04.2-.13.2-.25a.85.85 0 0 0-.02-.21 1.05 1.05 0 0 1-.04-.28c0-.21.08-.4.24-.53a.8.8 0 0 1 .55-.22c.16 0 .31.04.45.13.09.07.2.11.3.12.13-.01.24-.1.3-.23.09-.16.2-.31.33-.45a.76.76 0 0 1 .6-.23c.11 0 .23.03.35.08-.3.34-.44.78-.41 1.23zm10.95 7.2c.28 0 .51-.1.7-.26a.84.84 0 0 0 .27-.65c0-.3-.13-.58-.36-.78a1.19 1.19 0 0 0-.84-.34c-.26 0-.5.09-.7.26a.86.86 0 0 0-.28.66c0 .3.14.58.36.77.23.22.54.34.85.33zM5.92 14.7a.82.82 0 0 1-.29-.62c0-.25.1-.5.3-.66a1 1 0 0 1 .7-.27c.25 0 .49.09.67.26.18.17.28.37.28.62s-.11.49-.3.65a.99.99 0 0 1-.7.28.94.94 0 0 1-.66-.26z"/></svg>