<svg xmlns="http://www.w3.org/2000/svg" viewBox="0 0 24 24"><path fill="currentColor" d="m6.9 9.66-1.37.29V7.04a5.47 5.47 0 0 1-.5-1.24 5.04 5.04 0 0 1-.18-1.3q0-.82.31-1.44.32-.62.88-.97a2.41 2.41 0 0 1 1.3-.34 2.66 2.66 0 0 1 .79.11q.37.12.65.34L8.2 3.43q-.36-.16-.74-.16-.56 0-.88.37-.32.36-.32 1a3 3 0 0 0 .14.87q.14.46.39.88l2.73.95-.4 1.3-2.22-.76zm2.35 4.85.23.94a1.79 1.79 0 0 0-1.01.67q-.4.5-.4 1.15 0 .78.56 1.33.55.55 1.32.55a1.8 1.8 0 0 0 1.33-.55q.54-.55.54-1.33a1.81 1.81 0 0 0-.2-.84l.87-.45q.31.58.31 1.3 0 .78-.38 1.42-.4.65-1.03 1.04-.65.39-1.44.39a2.74 2.74 0 0 1-1.44-.4q-.64-.38-1.03-1.03-.38-.64-.38-1.43a2.77 2.77 0 0 1 .6-1.75q.6-.77 1.55-1.01zm3.32 2.53.54.8q-.39.27-.6.68-.22.4-.22.88 0 .77.56 1.33.55.55 1.32.55a1.8 1.8 0 0 0 1.33-.55q.54-.56.54-1.33a1.93 1.93 0 0 0-.26-.97l.84-.5q.4.7.4 1.47 0 .78-.39 1.43-.38.65-1.03 1.04-.64.38-1.43.38-.78 0-1.43-.38-.65-.39-1.04-1.04-.38-.65-.38-1.43a2.8 2.8 0 0 1 .33-1.34 2.84 2.84 0 0 1 .92-1.02zM4.5 12.3l.45.86a1.85 1.85 0 0 0-.73.69q-.27.45-.27.97 0 .77.56 1.33.55.55 1.32.55a1.8 1.8 0 0 0 1.33-.55q.54-.56.54-1.33a1.87 1.87 0 0 0-.04-.4q-.03-.17-.11-.35l.88-.41a2.29 2.29 0 0 1 .19.56q.06.3.06.6 0 .78-.39 1.43-.38.65-1.03 1.04-.64.38-1.43.38-.78 0-1.43-.38-.65-.39-1.04-1.04-.38-.65-.38-1.43a2.8 2.8 0 0 1 .4-1.47q.42-.68 1.12-1.05zm7.5 4h.98q0 .51.25.94.25.42.68.68.42.25.94.25t.94-.25q.43-.26.68-.68.26-.43.26-.94a1.85 1.85 0 0 0-.23-.9 1.86 1.86 0 0 0-.62-.68l.52-.82a2.79 2.79 0 0 1 .96 1.03 2.82 2.82 0 0 1 .34 1.37q0 .78-.38 1.43-.39.65-1.03 1.03-.65.39-1.44.39-.78 0-1.43-.39-.65-.38-1.03-1.03-.39-.65-.39-1.43zm3.78 4.47.82-.53a1.94 1.94 0 0 0 .68.62 1.82 1.82 0 0 0 .9.23 1.8 1.8 0 0 0 1.32-.55q.55-.55.55-1.32a1.84 1.84 0 0 0-.35-1.1 1.82 1.82 0 0 0-.92-.68l.31-.92a2.71 2.71 0 0 1 1.4 1.03q.53.75.53 1.67 0 .78-.38 1.43-.39.65-1.03 1.03-.65.39-1.44.39a2.79 2.79 0 0 1-1.36-.35q-.63-.34-1.03-.95zm.65-10.83-1.07-.4a1.98 1.98 0 0 0 .7-.68 1.79 1.79 0 0 0 .28-.97q0-.78-.55-1.33t-1.33-.55a1.84 1.84 0 0 0-.98.28 1.88 1.88 0 0 0-.7.76l-.88-.43q.37-.72 1.06-1.15a2.78 2.78 0 0 1 1.5-.43 2.74 2.74 0 0 1 1.44.38q.64.39 1.03 1.03.38.65.38 1.44a2.77 2.77 0 0 1-.23 1.13 2.84 2.84 0 0 1-.65.92zm.15 7.95.35-.92a1.85 1.85 0 0 0 .66.12 1.8 1.8 0 0 0 1.32-.55q.55-.56.55-1.33 0-.78-.55-1.33-.54-.54-1.32-.54v-.98a2.74 2.74 0 0 1 1.43.39q.65.38 1.03 1.03.39.64.39 1.43 0 .78-.39 1.43-.38.65-1.03 1.04-.64.38-1.43.38a2.81 2.81 0 0 1-.53-.04 3.38 3.38 0 0 1-.48-.13zm-9.35-3.15q-.78 0-1.43-.38-.65-.39-1.03-1.04-.39-.65-.39-1.43a2.74 2.74 0 0 1 .39-1.43q.38-.65 1.03-1.03.65-.39 1.43-.39a2.74 2.74 0 0 1 1.44.39q.64.38 1.03 1.03.39.64.39 1.43 0 .78-.39 1.43-.39.65-1.03 1.04-.64.38-1.44.38zm4.2 2.16q-.78 0-1.43-.38-.65-.39-1.03-1.04-.39-.65-.39-1.43a2.74 2.74 0 0 1 .39-1.43q.38-.65 1.03-1.03.65-.4 1.43-.4a2.74 2.74 0 0 1 1.44.4q.64.38 1.03 1.03.39.64.39 1.43 0 .78-.4 1.43-.38.65-1.02 1.04-.64.38-1.44.38zm4.3-2.14q-.78 0-1.43-.38-.65-.39-1.03-1.04-.4-.65-.4-1.43a2.74 2.74 0 0 1 .4-1.43q.38-.65 1.03-1.03.65-.39 1.43-.39a2.74 2.74 0 0 1 1.44.39q.64.38 1.03 1.03.38.64.38 1.43 0 .78-.38 1.43-.39.65-1.03 1.04-.65.38-1.44.38zm-4.5-2.62q-.77 0-1.42-.39-.65-.38-1.04-1.03-.38-.65-.38-1.43a2.74 2.74 0 0 1 .38-1.44q.39-.64 1.04-1.03t1.43-.39a2.74 2.74 0 0 1 1.43.39q.65.39 1.03 1.03.39.64.39 1.44 0 .78-.39 1.43-.38.65-1.03 1.03-.64.39-1.43.39zm4.5 1.65a1.8 1.8 0 0 0 1.33-.55q.55-.56.55-1.33 0-.78-.55-1.33-.55-.54-1.33-.54-.77 0-1.32.54-.55.55-.55 1.33 0 .77.55 1.33.55.55 1.32.55zm-8.5-.02a1.8 1.8 0 0 0 1.33-.55q.55-.56.55-1.33 0-.78-.55-1.33-.54-.54-1.33-.54-.77 0-1.32.54-.55.55-.55 1.33 0 .77.55 1.33.55.55 1.32.55zm4.2 2.16a1.8 1.8 0 0 0 1.33-.56q.55-.55.55-1.32 0-.78-.55-1.33-.54-.54-1.33-.54-.77 0-1.32.54-.55.55-.55 1.33 0 .77.55 1.32.55.56 1.32.56zm-.2-4.77a1.8 1.8 0 0 0 1.34-.55q.54-.55.54-1.32 0-.79-.54-1.33-.55-.55-1.33-.55-.77 0-1.32.55-.56.54-.56 1.33 0 .77.56 1.32.55.55 1.32.55zm2.14-.36.07 1.75-1.48-.9zm-4.23 4.36-.95.39-.2-1.42 1.05-.46zm1.64-3.43-1.23.8v-1.4z"/></svg>