<svg xmlns="http://www.w3.org/2000/svg" viewBox="0 0 24 24"><path fill="currentColor" d="M10.27 1.97A1.02 1.02 0 0 0 9.24 3v13.5a1.08 1.08 0 0 0 .18.58 1 1 0 0 0 .85.45h9c.58 0 1.04-.45 1.04-1.03V3c0-.58-.46-1.03-1.04-1.03zM8.31 4.39l-1.49.4a1.02 1.02 0 0 0-.73 1.26l.3 1.11 1.92 7.16zM5.55 7.64l-1.34.77a1.02 1.02 0 0 0-.37 1.41l4.28 7.41zm3.8 10.6.23.85a1.02 1.02 0 0 0 1.27.73l5.06-1.35h-5.64c-.33 0-.64-.09-.91-.24zm7.19 1.03-5.45 1.46c-.32.08-.64.08-.95.01l.45.77a1.02 1.02 0 0 0 1.4.38z"/></svg>