<svg xmlns="http://www.w3.org/2000/svg" viewBox="0 0 24 24"><path fill="currentColor" d="M9.98 21.79c1.08.3 2.19.46 3.3.46 1.1 0 2.18-.17 3.22-.5 1.03-.34 2-.86 2.85-1.55a7.52 7.52 0 0 0 2.03-2.64c.54-1.2.8-2.49.77-3.8 0-2.6-.39-4.8-1.15-6.59a9.1 9.1 0 0 0-3.15-4.05 7.82 7.82 0 0 0-4.53-1.37c-1.08 0-2.16.17-3.24.5a13.07 13.07 0 0 0-5.74 3.67c-.76.84-1.37 1.81-1.82 2.86a8.47 8.47 0 0 0-.67 3.35 8.7 8.7 0 0 0 .65 3.38 9.7 9.7 0 0 0 1.78 2.8c.75.83 1.62 1.54 2.6 2.13.96.58 2.01 1.04 3.1 1.35zm-1.74-3.64a8.49 8.49 0 0 1-3.59-2.13c-.5-.5-.9-1.1-1.19-1.75a5.24 5.24 0 0 1-.44-2.16c0-.99.2-1.96.59-2.86.38-.92.92-1.77 1.6-2.54a11.7 11.7 0 0 1 5.2-3.37 10 10 0 0 1 3.03-.48c.87 0 1.73.18 2.53.53a6.98 6.98 0 0 1 3.58 3.55 6 6 0 0 1 .53 2.5c0 .88-.17 1.76-.52 2.63a9.3 9.3 0 0 1-1.46 2.45 11.03 11.03 0 0 1-4.91 3.41c-.98.34-2.01.5-3.05.5a6.9 6.9 0 0 1-1.9-.28zm6.2-7.07c.2.12.45.18.7.17.24 0 .48-.05.7-.16a.47.47 0 0 0 .28-.4.46.46 0 0 0-.29-.4c-.2-.1-.42-.15-.69-.15-.27 0-.5.05-.7.17-.2.11-.3.24-.3.4.03.16.14.3.3.37zm-.15 2.47c-.13.1-.3.13-.5.07-.21-.07-.4-.2-.57-.4a1.22 1.22 0 0 1-.3-.74.45.45 0 0 1 .46-.48c.07 0 .14.02.22.04.2.06.4.2.56.4a1.16 1.16 0 0 1 .3.72c0 .15-.06.3-.17.4zM9.95 8.47c-.13.1-.3.12-.51.06-.2-.06-.4-.2-.57-.4a1.22 1.22 0 0 1-.3-.74.45.45 0 0 1 .46-.47c.08 0 .15 0 .22.03.21.07.4.2.56.4a1.15 1.15 0 0 1 .3.73c0 .14-.05.29-.16.39zm5.33.8c.16 0 .32-.03.47-.07.23-.06.44-.19.6-.36.16-.17.22-.33.17-.47a.46.46 0 0 0-.4-.3 1.18 1.18 0 0 0-.24-.02c-.15 0-.3.03-.45.07-.24.07-.45.2-.61.37a.6.6 0 0 0-.18.39v.08c.06.17.21.28.39.29l.25.02zm-4.21 5.5c.08.16.25.26.43.27.17 0 .31-.1.44-.28.12-.2.18-.43.18-.66 0-.24-.06-.47-.18-.66a.52.52 0 0 0-.44-.28c-.17 0-.31.1-.43.28-.13.2-.2.42-.18.66-.01.23.05.47.18.66zm.78-7.13c-.14-.03-.24-.16-.3-.38a1.67 1.67 0 0 1 .02-.72c.06-.23.17-.45.34-.62.1-.11.22-.18.36-.2l.09.02c.17.06.29.2.3.38.03.1.04.2.04.3 0 .14-.02.28-.06.41-.05.24-.16.46-.33.63a.53.53 0 0 1-.37.2c-.03 0-.06 0-.09-.02zm-4.64 2.54c.21.12.45.17.69.17.27 0 .5-.06.7-.17.2-.11.3-.25.3-.4a.46.46 0 0 0-.3-.38 1.41 1.41 0 0 0-.7-.16c-.23 0-.47.05-.68.16a.47.47 0 0 0-.3.4c.02.17.13.32.3.38zm-.15 2.48c.2 0 .41-.05.6-.14.23-.1.42-.25.56-.45.08-.1.12-.23.13-.36 0-.04 0-.09-.02-.13a.42.42 0 0 0-.42-.22h-.07c-.22 0-.44.05-.64.14-.22.1-.41.24-.55.44a.61.61 0 0 0-.13.34c0 .05 0 .1.03.15.06.14.2.21.42.23h.09zm6.6-5.34c0 .12.04.24.14.32.06.06.14.09.23.09.08 0 .17-.02.24-.06.21-.07.4-.22.57-.43.17-.2.28-.42.32-.63l.01-.16a.4.4 0 0 0-.12-.32.34.34 0 0 0-.24-.08.73.73 0 0 0-.24.05 1.3 1.3 0 0 0-.57.42 1.37 1.37 0 0 0-.34.8zm-5.42 7.07c-.01.12.04.24.13.33.06.05.14.08.23.08.08 0 .17-.02.24-.06.23-.08.42-.23.57-.42.16-.18.28-.4.32-.64l.02-.15a.4.4 0 0 0-.13-.33.33.33 0 0 0-.23-.08.72.72 0 0 0-.25.05c-.21.08-.4.22-.57.43-.17.2-.27.41-.32.63a.85.85 0 0 0-.01.16z"/></svg>