<svg xmlns="http://www.w3.org/2000/svg" viewBox="0 0 24 24"><path fill="currentColor" d="M3.4 2.72a.8.8 0 0 0-.53.28.9.9 0 0 0-.28.67 1.62 1.62 0 0 0 .2.7 4.86 4.86 0 0 0 .75 1 17.74 17.74 0 0 0 1.1 1.06 13.31 13.31 0 0 0-2.41 3.06 6.84 6.84 0 0 0-.9 3.34c0 .98.24 1.98.7 3A12.36 12.36 0 0 0 4.26 19a20.45 20.45 0 0 0 1.12-1.45c.2-.3.4-.6.58-.9.44.69.98 1.3 1.6 1.87a10.68 10.68 0 0 0 3.32 2.03 11.1 11.1 0 0 0 4.05.73 13.45 13.45 0 0 0 3.35-.45 24.3 24.3 0 0 0 .63.04 13.35 13.35 0 0 0 .7.02 2.94 2.94 0 0 0 1.52-.41c.46-.28.84-.64 1.12-1.08a2.64 2.64 0 0 0 .42-1.44 4.97 4.97 0 0 0-.1-.94 77.17 77.17 0 0 0-.21-1.06 8.56 8.56 0 0 1-.15-.96c-.2-2.44-.72-4.44-1.57-6a7.87 7.87 0 0 0-3.62-3.44 13.83 13.83 0 0 0-5.92-1.1c-.57 0-1.13.02-1.66.07s-1.04.13-1.51.24a3.35 3.35 0 0 0-.49-.12 3.03 3.03 0 0 0-.52-.04c-.45 0-.82.16-1.13.5a2.18 2.18 0 0 0-.16.24l-1.67-1.6a.68.68 0 0 1-.2-.41 3.7 3.7 0 0 0-.09-.43.23.23 0 0 0-.25-.19Zm7.7 2.8a12.88 12.88 0 0 1 5.35.97 6.66 6.66 0 0 1 3.2 3.07 14.8 14.8 0 0 1 1.38 5.54c.03.26.08.58.15.95l.21 1.07a4.57 4.57 0 0 1 .1.84 1.65 1.65 0 0 1-.27.9c-.17.27-.4.5-.7.68a1.73 1.73 0 0 1-.92.27 10.65 10.65 0 0 1-.75-.02 33.35 33.35 0 0 1-.66-.06 16.16 16.16 0 0 1-1.73.36 10.87 10.87 0 0 1-1.54.11 10.13 10.13 0 0 1-3.63-.64 9.2 9.2 0 0 1-2.95-1.78 8.3 8.3 0 0 1-1.97-2.67 7.69 7.69 0 0 1-.7-3.29v-.16a8.72 8.72 0 0 0-.27-2.3 6.2 6.2 0 0 1-.27-1.58c0-.1.05-.2.16-.31a1.26 1.26 0 0 1 .3-.22l.25.21a.46.46 0 0 0 .32.12c.19 0 .36-.09.53-.25a.73.73 0 0 0 .24-.52.45.45 0 0 0-.14-.34l-.42-.4a2.8 2.8 0 0 1 0-.02.54.54 0 0 1 .54-.37 2.08 2.08 0 0 1 .46.06c.16.03.34.08.55.15a9.4 9.4 0 0 1 1.5-.28c.51-.06 1.07-.08 1.67-.08Zm.73 1.6a.52.52 0 0 0-.37.14.46.46 0 0 0-.14.36.46.46 0 0 0 .13.34.51.51 0 0 0 .35.14 6.98 6.98 0 0 1 2.22.42c.64.24 1.23.6 1.76 1.09a.47.47 0 0 0 .33.13.45.45 0 0 0 .34-.13.46.46 0 0 0 .13-.33c0-.27-.22-.56-.64-.86a6.5 6.5 0 0 0-1.57-.8 9.08 9.08 0 0 0-1.27-.36 6.23 6.23 0 0 0-1.27-.13Z"/></svg>