<svg xmlns="http://www.w3.org/2000/svg" viewBox="0 0 24 24"><path fill="currentColor" d="m12.89 11.06.3 1.17-.4-.1a2.86 2.86 0 0 0-.41-.02q-.83 0-1.48.4a2.88 2.88 0 0 0-1.03 1.14 3.5 3.5 0 0 0-.38 1.64 5.95 5.95 0 0 0 .37 2 8.89 8.89 0 0 0 .94 1.91 6.22 6.22 0 0 0 1.26 1.43 2.09 2.09 0 0 0 1.28.55 1.45 1.45 0 0 0 1.1-.6 4.46 4.46 0 0 0 .82-1.56q.31-.98.31-2.15a8.47 8.47 0 0 0-.02-.65l-.07-.62 1.19-.14a11.09 11.09 0 0 1 .06.68 13.3 13.3 0 0 1 .01.73q0 1.48-.46 2.7a5.13 5.13 0 0 1-1.23 1.96q-.78.72-1.7.72a3 3 0 0 1-1.75-.63q-.88-.63-1.63-1.65a9.27 9.27 0 0 1-1.2-2.25q-.45-1.23-.45-2.43 0-1.22.54-2.18a4.08 4.08 0 0 1 1.46-1.52q.93-.56 2.06-.56a6.49 6.49 0 0 1 .26 0 2.22 2.22 0 0 1 .25.03zm-2.43-2.95h1.02q2.36.5 4.45 1.42a19.07 19.07 0 0 1 3.48 1.98 15.76 15.76 0 0 1 .2.15q1.6 1.2 2.5 2.53A4.9 4.9 0 0 1 23 16.4a3.73 3.73 0 0 1 .02.4 1.36 1.36 0 0 1-.5 1.15 2.23 2.23 0 0 1-1.33.4 4.33 4.33 0 0 1-.15 0 6.45 6.45 0 0 1-2.87-.73q-1.46-.72-2.86-2.07-1.4-1.35-2.63-3.24-1.24-1.88-2.21-4.2zM3.65 18.84q-1.18 0-1.92-1.15a4.8 4.8 0 0 1-.7-2.12 8.11 8.11 0 0 1-.05-.89 7.48 7.48 0 0 1 .43-2.51A7.72 7.72 0 0 1 2.58 10a5.92 5.92 0 0 1 1.66-1.5 3.74 3.74 0 0 1 1.93-.55 4 4 0 0 1 1.99.51 4.31 4.31 0 0 1 1.5 1.37q.56.85.56 1.86a5.55 5.55 0 0 1-.39 2 8.5 8.5 0 0 1-1.05 1.93q-.67.92-1.52 1.64a7.51 7.51 0 0 1-1.78 1.15 4.44 4.44 0 0 1-1.83.42zM9.37 7.58l.6-.79a16.55 16.55 0 0 0 3.1-.52 22.45 22.45 0 0 0 3.3-1.16q1.7-.74 3.35-1.77a2.42 2.42 0 0 1 1.12-.42 1.27 1.27 0 0 1 .07 0 .8.8 0 0 1 .8.97 2.49 2.49 0 0 1 0 .04 3.55 3.55 0 0 1-.6 1.91q-.6.95-1.63 1.74-1.03.79-2.3 1.26-1.28.47-2.64.47a8.23 8.23 0 0 1-2.64-.44 9.82 9.82 0 0 1-2.53-1.3zm11.79 9.7q.4 0 .54-.1a.45.45 0 0 0 .14-.4 3.58 3.58 0 0 0-.65-1.94 5.76 5.76 0 0 0-.09-.14 9.1 9.1 0 0 0-1.72-1.81 13.23 13.23 0 0 0-.34-.28A17.4 17.4 0 0 0 16 10.76q-1.73-.83-3.69-1.35 1.13 2.35 2.6 4.12a13.53 13.53 0 0 0 2.38 2.28 10.17 10.17 0 0 0 .7.48 6.37 6.37 0 0 0 2.61.95 4.97 4.97 0 0 0 .56.03zm-8.25-8.96-.62.97a33.53 33.53 0 0 1-2.88-1.33A34.42 34.42 0 0 1 6.7 6.4a23.22 23.22 0 0 1-2.3-1.68 11.47 11.47 0 0 1-1.53-1.5 7.62 7.62 0 0 1-.12-.15L4.1 1.75q.61.8 1.59 1.68A27.3 27.3 0 0 0 7.84 5.2a36.15 36.15 0 0 0 2.49 1.68 34.47 34.47 0 0 0 2.58 1.45zm-9.26 9.44a3.38 3.38 0 0 0 1.48-.37q.76-.36 1.45-.98.7-.62 1.26-1.4a7.43 7.43 0 0 0 .88-1.65 4.64 4.64 0 0 0 .33-1.66 2.34 2.34 0 0 0-.4-1.32q-.4-.6-1.06-.98-.65-.37-1.42-.37-.76 0-1.48.47a4.86 4.86 0 0 0-1.29 1.27 6.8 6.8 0 0 0-.9 1.81 6.61 6.61 0 0 0-.34 2.1 6.09 6.09 0 0 0 .2 1.7 3.21 3.21 0 0 0 .22.55 1.38 1.38 0 0 0 .83.8.95.95 0 0 0 .24.03zm16.44-2.47-.6.63q-1.78-1.72-3.86-3.42a74.37 74.37 0 0 0-4.49-3.38 96.87 96.87 0 0 0-.01-.01l.5-.72q2.45 1.7 4.56 3.43a60.47 60.47 0 0 1 3.9 3.47zm-8.83-7.68v-.15a7.22 7.22 0 0 0 3.28.78 6.45 6.45 0 0 0 2.07-.35 8.05 8.05 0 0 0 1.92-.94q.87-.59 1.42-1.3.55-.73.61-1.46a.3.3 0 0 0 0-.04.07.07 0 0 0-.03-.07.05.05 0 0 0-.01 0 .27.27 0 0 0-.12.05q-1.44.88-2.61 1.5a21.03 21.03 0 0 1-2.22 1.02q-1.04.4-2.09.64-1.04.23-2.22.32zm-2.47-.58 1 .39a35.84 35.84 0 0 1-.92 1.6 13.57 13.57 0 0 1-.74 1.11 3.29 3.29 0 0 1-.68.71.73.73 0 0 1-.4.15.47.47 0 0 1-.34-.15q-.15-.15-.15-.36a.64.64 0 0 1 .16-.4 56.23 56.23 0 0 0 1.05-1.4 31.83 31.83 0 0 0 .28-.38 6.78 6.78 0 0 0 .68-1.13 3.2 3.2 0 0 0 .06-.14zm2.38 2.27 1.02.64a6.02 6.02 0 0 0-.09.47 1.68 1.68 0 0 0-.01.18 3.46 3.46 0 0 0 .2 1.17q.19.55.47 1.13a.4.4 0 0 1 .05.17q0 .2-.2.38a.57.57 0 0 1-.38.18.74.74 0 0 1-.56-.44 2.31 2.31 0 0 1-.01-.03q-.29-.47-.47-1.17t-.18-1.39q0-.21.03-.49a10.64 10.64 0 0 1 .13-.8z"/></svg>