<svg xmlns="http://www.w3.org/2000/svg" viewBox="0 0 24 24"><path fill="currentColor" d="M16.34 1.74c-.87 0-1.65.24-2.34.7-.53.37-1 .83-1.38 1.34-.05-.15-.1-.3-.17-.43a.74.74 0 0 0-.65-.29c-.3 0-.57.06-.82.18-.24.13-.37.27-.37.44a2.72 2.72 0 0 1 .9 1.66c-1.25.03-2.49.23-3.68.58A9.68 9.68 0 0 0 4.57 7.6a7.62 7.62 0 0 0-2.86 6.1c-.04 1.6.4 3.17 1.27 4.5a8.35 8.35 0 0 0 3.59 3c1.71.73 3.56 1.1 5.43 1.05 2.08 0 3.9-.35 5.44-1.06a8.36 8.36 0 0 0 3.58-2.98 7.98 7.98 0 0 0 1.27-4.51 7.62 7.62 0 0 0-2.86-6.1 9.67 9.67 0 0 0-3.25-1.68 14.16 14.16 0 0 0-3.43-.57l-.03-.56a7.3 7.3 0 0 0 2.01.32c.91 0 1.7-.23 2.38-.7a6.6 6.6 0 0 0 1.84-2.13 7.78 7.78 0 0 0-2.61-.54zm-4.96 4.58h.2l.02.67c-.18.05-.34.13-.5.24a.96.96 0 0 0-.4.8c0 .34.13.62.4.82.32.22.7.32 1.08.3.38.02.76-.08 1.07-.3.27-.2.41-.48.41-.82 0-.33-.14-.6-.41-.8-.15-.1-.3-.18-.48-.23v-.68a12 12 0 0 1 4.06.89A7.19 7.19 0 0 1 20 9.76a6.85 6.85 0 0 1 1.12 3.94A6.97 6.97 0 0 1 20 17.66a7.28 7.28 0 0 1-3.17 2.6c-1.36.61-2.97.92-4.83.92-1.86 0-3.46-.3-4.83-.92A7.28 7.28 0 0 1 4 17.66a6.97 6.97 0 0 1-1.12-3.96A6.85 6.85 0 0 1 4 9.76 7.2 7.2 0 0 1 7.17 7.2a12 12 0 0 1 4.21-.9ZM8.06 8.66c-.1 0-.19.03-.27.08a6.16 6.16 0 0 0-3.07 5.08v.06c0 .12.04.24.12.33.09.1.21.15.35.15.27.03.51-.19.51-.47a5.22 5.22 0 0 1 2.61-4.32c.14-.07.23-.21.23-.36 0-.1-.02-.19-.07-.27a.43.43 0 0 0-.29-.26.5.5 0 0 0-.12-.02ZM18 9.6c-.2 0-.35.1-.48.29-.12.17-.2.37-.2.58 0 .14.04.26.13.36.08.1.2.14.33.14.2 0 .36-.1.48-.29.12-.17.18-.38.19-.6a.41.41 0 0 0-.45-.48zm.98 2.9c-.2 0-.36.1-.49.3a1.2 1.2 0 0 0-.18.63c0 .15.04.3.12.42.09.1.22.17.37.16.2 0 .4-.12.5-.3.11-.2.18-.41.18-.64a.7.7 0 0 0-.12-.4.43.43 0 0 0-.38-.17zm-1.47 3.17a.76.76 0 0 0-.57.32.97.97 0 0 0-.27.62c0 .13.04.25.13.34.1.09.22.14.35.14a.76.76 0 0 0 .58-.32.97.97 0 0 0 .27-.62.46.46 0 0 0-.5-.48zm-4.06 2.76a.9.9 0 0 0-.61.3.84.84 0 0 0-.31.6c0 .12.05.23.15.32.1.1.21.14.34.14.2 0 .4-.1.61-.3.2-.2.3-.4.3-.6a.42.42 0 0 0-.14-.32.5.5 0 0 0-.34-.14z"/></svg>