<svg xmlns="http://www.w3.org/2000/svg" viewBox="0 0 24 24"><path fill="currentColor" d="M3.58 13.15v-.87h1.16v.87a5.97 5.97 0 0 0 .96 3.3 7.06 7.06 0 0 0 2.52 2.37 7.49 7.49 0 0 0 1.4.61q.7.23 1.43.39a29.34 29.34 0 0 1 1.47.37 29.14 29.14 0 0 1 1.41.4 21.37 21.37 0 0 0 1.48.42 5.97 5.97 0 0 0 1.38.17q1.4 0 2.28-.85.88-.86.88-2.3a6.57 6.57 0 0 0-.13-1.24 33.92 33.92 0 0 0-.27-1.28 8.77 8.77 0 0 1-.2-1.12 5.8 5.8 0 0 1-.03-.58 5.34 5.34 0 0 1 .01-.35l.08-.92a10.1 10.1 0 0 0 .04-.95q0-1.83-.85-3.33-.86-1.5-2.38-2.43a7.74 7.74 0 0 0-3.54-1.08v-.98q1.72.1 3.17.72t2.52 1.66q1.07 1.04 1.66 2.42a7.6 7.6 0 0 1 .6 3.02q0 .8-.1 1.38a4.92 4.92 0 0 0-.04.69 6.97 6.97 0 0 0 .03.64 11.15 11.15 0 0 0 .35 1.79q.25.93.25 1.95a4.4 4.4 0 0 1-.66 2.45 3.66 3.66 0 0 1-.51.63 4.19 4.19 0 0 1-2.79 1.13 6.53 6.53 0 0 1-.37 0 7.73 7.73 0 0 1-2.25-.35 49.33 49.33 0 0 0-2.45-.67 47.73 47.73 0 0 0-1.53-.36 13.31 13.31 0 0 1-1.38-.37 8.5 8.5 0 0 1-1.45-.66q-2.01-1.13-3.08-2.88a7.17 7.17 0 0 1-1.07-3.8zm2.17-.63v-.47q-.12.15-.27.29-.15.14-.32.25-.24.15-.57.24a3.55 3.55 0 0 0-.72.3 1.58 1.58 0 0 0-.4.28q-.15.15-.29.15a.28.28 0 0 1-.26-.3 4.04 4.04 0 0 1-.04-.56 6.84 6.84 0 0 1 .32-1.99 11.72 11.72 0 0 1 .9-2.14 10.7 10.7 0 0 1 1.33-1.93 4.44 4.44 0 0 1-.99-1.46 4.39 4.39 0 0 1-.33-1.68 6.54 6.54 0 0 1 .04-.73 5.79 5.79 0 0 1 .06-.44q.02-.07.23-.22a2.9 2.9 0 0 1 .46-.25 1.13 1.13 0 0 1 .43-.11.46.46 0 0 1 .27.05.21.21 0 0 1 .06.12q.02.2 0 .52-.02.31-.02.66a3.02 3.02 0 0 0 .32 1.38q.33.64.92.76a8.92 8.92 0 0 1 2.5-1.45 7.75 7.75 0 0 1 2.76-.5q.52 0 1.08.06t.93.18q.38.11.38.3 0 .18-.27.5a6.1 6.1 0 0 1-.65.65 8.27 8.27 0 0 1-.77.6q-.38.26-.64.37.22.07.61.32a9.1 9.1 0 0 1 .81.59q.41.33.7.63a.85.85 0 0 1 .29.44.65.65 0 0 1-.36.54q-.36.23-.9.36a4.82 4.82 0 0 1-1.14.14 3.3 3.3 0 0 1-.25-.01l-.25-.02q.17.44.3 1.16.14.72.14 1.3a4.6 4.6 0 0 1-.02.44q-.02.2-.12.28a1.27 1.27 0 0 1-.75.18 4.6 4.6 0 0 1-.97-.12 7.18 7.18 0 0 1-.96-.27q-.44-.16-.65-.3a4.37 4.37 0 0 1-.27 1.53q-.27.72-.62 1.17a1.13 1.13 0 0 1-.53.44.32.32 0 0 1-.08 0q-.11 0-.34-.21a4.47 4.47 0 0 1-.49-.56 3.93 3.93 0 0 1-.43-.74 1.77 1.77 0 0 1-.17-.72zm8.23-.99a.78.78 0 0 0 .57.36.42.42 0 0 0 .32-.14.5.5 0 0 0 .13-.35 1.11 1.11 0 0 0-.3-.7.78.78 0 0 0-.56-.36.42.42 0 0 0-.32.14.5.5 0 0 0-.13.35 1.11 1.11 0 0 0 .29.7zm.81 7.79a1.1 1.1 0 0 0 .6.14 1.1 1.1 0 0 0 .61-.14q.23-.15.23-.4a.44.44 0 0 0-.23-.39 1.13 1.13 0 0 0-.6-.14 1.13 1.13 0 0 0-.6.14q-.23.14-.23.39t.22.4zm.83-11.42a.88.88 0 0 0 .62.33.44.44 0 0 0 .32-.13.46.46 0 0 0 .14-.34q0-.33-.32-.66a.88.88 0 0 0-.61-.33.44.44 0 0 0-.32.13.45.45 0 0 0-.14.34q0 .33.31.66zm-5.4 10.03a1 1 0 0 0 .68.31.47.47 0 0 0 .33-.13.43.43 0 0 0 .14-.33.85.85 0 0 0-.33-.6 1 1 0 0 0-.67-.3.48.48 0 0 0-.34.13.43.43 0 0 0-.14.32.85.85 0 0 0 .34.6zM7.3 16.67a1 1 0 0 0 .67.3.47.47 0 0 0 .33-.13.43.43 0 0 0 .14-.33.85.85 0 0 0-.33-.6 1 1 0 0 0-.67-.3.48.48 0 0 0-.34.13.43.43 0 0 0-.14.32.85.85 0 0 0 .34.6zm3.41-2.25a1 1 0 0 0 .67.3.47.47 0 0 0 .34-.13.43.43 0 0 0 .14-.32.85.85 0 0 0-.34-.6 1 1 0 0 0-.66-.31.48.48 0 0 0-.34.13.43.43 0 0 0-.14.33.85.85 0 0 0 .33.6zm6.87 2.24a.63.63 0 0 0 .5.33q.2 0 .33-.15.13-.16.13-.4 0-.38-.23-.72a.63.63 0 0 0-.5-.33q-.2 0-.33.15a.58.58 0 0 0-.13.4q0 .39.23.72zm-2.62-.61q-.3 0-.61-.35a1 1 0 0 1-.32-.66.44.44 0 0 1 .14-.33q.13-.13.32-.13.3 0 .61.34a1 1 0 0 1 .32.67.45.45 0 0 1-.14.32.44.44 0 0 1-.32.14zm2.77-3.64q-.26 0-.45-.3a1.27 1.27 0 0 1-.18-.68.73.73 0 0 1 .13-.46.43.43 0 0 1 .36-.18q.27 0 .45.3a1.27 1.27 0 0 1 .19.69.73.73 0 0 1-.14.46.43.43 0 0 1-.36.17z"/></svg>