<svg xmlns="http://www.w3.org/2000/svg" viewBox="0 0 24 24"><path fill="currentColor" d="m4.8 2.72 17.42 7.78q.21 1.26.21 2.49 0 1.77-.54 3.28a6.63 6.63 0 0 1-1.75 2.63 7.67 7.67 0 0 1-2.45 1.5 11.13 11.13 0 0 1-.7.25 13.12 13.12 0 0 1-2.65.52 21.34 21.34 0 0 1-2.16.1 12.12 12.12 0 0 1-3.98-.61 10.19 10.19 0 0 1-.36-.14 9.76 9.76 0 0 1-3.35-2.13Q3.09 17 2.33 15.14q-.76-1.87-.76-4.09A12.94 12.94 0 0 1 2 7.72Q2.43 6.1 3.16 4.8q.72-1.3 1.63-2.07zm1.23 1.23.75.64A7.92 7.92 0 0 0 5.33 7.1a8.94 8.94 0 0 0-.5 3 7.94 7.94 0 0 0 .38 2.54 5.06 5.06 0 0 0 1.04 1.81 4.82 4.82 0 0 0 3.1 1.5 7.73 7.73 0 0 0 .94.06 8.82 8.82 0 0 0 4.9-1.51 12.52 12.52 0 0 0 3.04-2.87 17.09 17.09 0 0 0 1.04-1.5l.83.51q-1.89 3.07-4.44 4.7A9.78 9.78 0 0 1 10.29 17a7.21 7.21 0 0 1-2.85-.53 5.59 5.59 0 0 1-.61-.3 5.52 5.52 0 0 1-2.2-2.38 7.68 7.68 0 0 1-.75-2.9 11.04 11.04 0 0 1-.02-.79 10.03 10.03 0 0 1 .54-3.29q.54-1.57 1.63-2.86zm14.78 7.1L5 4a8.04 8.04 0 0 0-1.1 1.8A10.6 10.6 0 0 0 3.2 8q-.25 1.18-.25 2.45 0 2.34.84 4.04a6.07 6.07 0 0 0 2.43 2.62 7.15 7.15 0 0 0 3.2.9 10.1 10.1 0 0 0 .6.01 10.4 10.4 0 0 0 4-.8q1.95-.8 3.67-2.35a16.82 16.82 0 0 0 2.86-3.4 20.87 20.87 0 0 0 .26-.43zm-1.07 2.75-.77.75a14.95 14.95 0 0 1-.04 1.26 5.59 5.59 0 0 1-.05.4 1.77 1.77 0 0 1-.36.89 3.3 3.3 0 0 1-.8.63 5.14 5.14 0 0 0-1.23.96 2.85 2.85 0 0 0-.13.16 3.5 3.5 0 0 0-.62 1.46 2.73 2.73 0 0 0 .47-.08 7.92 7.92 0 0 0 .48-.14 1.67 1.67 0 0 1 .43-.88q.35-.38 1.01-.73.5-.25.82-.56.32-.32.49-.81a5.5 5.5 0 0 0 .23-1.27 9.99 9.99 0 0 0 0-.03 20.81 20.81 0 0 0 .07-1.43 38.13 38.13 0 0 0 0-.58zm-4.07 3.32-1 .4a1.53 1.53 0 0 1-.35.37 4.84 4.84 0 0 1-.51.34 5.5 5.5 0 0 0-1.19.88 2.82 2.82 0 0 0-.18.2 3.2 3.2 0 0 0-.6 1.27q.23.03.47.03a2.82 2.82 0 0 0 .24 0l.23-.03a1.97 1.97 0 0 1 .93-1.3 4.42 4.42 0 0 1 .52-.3 2.73 2.73 0 0 0 .93-.72 2.72 2.72 0 0 0 .51-1.14zm5.65-5.41-.55.8q.3.7.39 1.56a18.38 18.38 0 0 1 .08 1.53 35.3 35.3 0 0 1 0 .74q.24-.52.41-1.11a11.57 11.57 0 0 0 .3-1.29 5.6 5.6 0 0 0-.2-1.04 9.44 9.44 0 0 0-.43-1.2zm-9.57 6.68-1.95.07a3.14 3.14 0 0 0-.76.5q-.34.29-.64.72.22.14.52.23.3.1.55.1a2.47 2.47 0 0 1 .35-.53 1.5 1.5 0 0 1 .42-.33 2.2 2.2 0 0 1 .55-.19 1.81 1.81 0 0 0 .73-.28q.22-.17.23-.3zM8.4 11.65a.47.47 0 0 0 .35.16.83.83 0 0 0 .67-.42q.3-.42.3-.8 0-.33-.3-.33a1.29 1.29 0 0 0-.77.32.9.9 0 0 0-.4.7.52.52 0 0 0 .15.37zm6.03.25a.68.68 0 0 0 .58.36.5.5 0 0 0 .35-.15q.17-.16.17-.4a1.02 1.02 0 0 0-.35-.71.98.98 0 0 0-.68-.35.35.35 0 0 0-.01 0 .39.39 0 0 0-.3.5q0 .4.24.75zm-2.96.83a.5.5 0 0 0 .41.23q.25 0 .42-.24.17-.23.17-.58 0-.37-.18-.65a.48.48 0 0 0-.35-.3.6.6 0 0 0-.4.33q-.23.31-.23.67a.88.88 0 0 0 .16.54zM6.85 9.1a.46.46 0 0 0 .38.17q.23 0 .48-.16a1.72 1.72 0 0 0 .44-.39.7.7 0 0 0 .18-.42.22.22 0 0 0-.05-.14.72.72 0 0 0-.56-.15 1.27 1.27 0 0 0-.68.2q-.32.2-.32.54a.56.56 0 0 0 .13.35z"/></svg>