<svg xmlns="http://www.w3.org/2000/svg" viewBox="0 0 128 128"><path fill="#d4131b" d="M50.5 16a5.43 5.43 0 0 0-5.5 5.5v72a5.75 5.75 0 0 0 .93 3.1A5.37 5.37 0 0 0 50.5 99h48c3.09 0 5.5-2.41 5.5-5.5v-72c0-3.09-2.41-5.5-5.5-5.5zM40 28.94l-7.92 2.12a5.43 5.43 0 0 0-3.9 6.74l1.59 5.9L40 81.87zM25.29 46.28l-7.11 4.1a5.43 5.43 0 0 0-2.01 7.52l22.82 39.53zm20.3 56.48 1.23 4.59a5.43 5.43 0 0 0 6.74 3.88l27-7.23H50.5c-1.77 0-3.44-.46-4.9-1.24zm38.3 5.52-29.04 7.78c-1.71.46-3.44.45-5.06.07l2.38 4.12a5.43 5.43 0 0 0 7.51 2.01z"/></svg>